<svg xmlns="http://www.w3.org/2000/svg" viewBox="0 0 64 64" fill="none">
  <defs>
    <linearGradient id="crust" x1="0" y1="0" x2="0" y2="1">
      <stop offset="0" stop-color="#fbbf24" />
      <stop offset="1" stop-color="#d97706" />
    </linearGradient>
    <linearGradient id="cheese" x1="0" y1="0" x2="1" y2="1">
      <stop offset="0" stop-color="#f59e0b" />
      <stop offset="1" stop-color="#fbbf24" />
    </linearGradient>
  </defs>
  <path d="M6 10c0-1.1.9-2 2-2h48c1.2 0 2.1 1.1 1.9 2.3l-8.4 43.5c-.3 1.5-1.9 2.3-3.2 1.6L7.5 31.4A2 2 0 0 1 7 28.9L6 10Z" fill="url(#crust)" stroke="#92400e" stroke-width="2" />
  <path d="m10 12 41 21-5.5 28.7c-.2 1-1.4 1.5-2.2.9L11.6 29.5c-.4-.3-.6-.8-.6-1.3V12Z" fill="url(#cheese)" stroke="#f97316" stroke-width="2" />
  <circle cx="22" cy="22" r="4.5" fill="#ef4444" stroke="#b91c1c" stroke-width="1.5" />
  <circle cx="36" cy="28" r="4.5" fill="#ef4444" stroke="#b91c1c" stroke-width="1.5" />
  <circle cx="28" cy="36" r="4.5" fill="#ef4444" stroke="#b91c1c" stroke-width="1.5" />
  <circle cx="44" cy="38" r="3.5" fill="#ef4444" stroke="#b91c1c" stroke-width="1.2" />
  <path d="M18 30c.6-1.2 2.4-1.2 3 0 .5 1 .4 2.5-.8 3.2-1.3.8-2.7-.2-3.2-1.2-.2-.5-.2-1 0-1.5Z" fill="#22c55e" stroke="#15803d" stroke-width="1" />
  <path d="M34 18c.4-.8 1.6-.8 2 0 .3.6.3 1.6-.5 2-.8.5-1.8-.2-2-1-.1-.4-.1-.7 0-1Z" fill="#22c55e" stroke="#15803d" stroke-width="1" />
</svg>
